<mxfile host="app.diagrams.net" modified="2023-05-12T12:45:30.365Z" agent="Mozilla/5.0 (Windows NT 10.0; Win64; x64) AppleWebKit/537.36 (KHTML, like Gecko) Chrome/113.0.0.0 Safari/537.36" version="21.2.9" etag="qiodPozX_hqAtPynLRdb" type="github">
  <diagram name="Page-1" id="qaiuuyW2L8_5Fm5VQTpZ">
    <mxGraphModel>
      <root>
        <mxCell id="0" />
        <mxCell id="1" parent="0" />
      </root>
    </mxGraphModel>
  </diagram>
</mxfile>
